<svg version="1.1" viewBox="-3 0 56 56" width="550" height="550" xmlns="http://www.w3.org/2000/svg">
  <path fill="#4e6e8e" d="M24 5.6 5 17V38L8 36.45V19L24 9ZM5 39 25 51 45 39V18ZM25 5V27.5L45 17M25 48 10.3 39.2 25 31.5"/>
  <path fill="#99ccff" d="m6 28 5-8.5h28l5 8.5-5 8.5h-28"/>
  <path fill="#1e1e1e" d="m 35.994141,21.595703 -5.34375,3.207031 v 6.394532 l 5.34375,3.207031 3.177734,-1.798828 -0.34375,-0.609375 -2.822266,1.599609 -4.65625,-2.792969 v -5.605468 l 4.65625,-2.792969 2.822266,1.599609 0.34375,-0.609375 z M 11,21.650391 v 0.699218 h 4.8125 L 17.580078,25 15.8125,27.650391 h -1.625 -3.537109 V 34 h 0.699218 V 28.349609 H 13.8125 l 3.896484,5.84375 0.582032,-0.386718 -3.636719,-5.457032 H 16.1875 L 18.419922,25 16.1875,21.650391 Z m 10,0 v 0.699218 h 4.8125 L 27.580078,25 25.8125,27.650391 H 20.650391 V 34 h 0.699218 V 28.349609 H 26.1875 L 28.419922,25 26.1875,21.650391 Z"/>
</svg>
