<svg version="1.1" viewBox="0 0 140 55" width="1400" height="550" xmlns="http://www.w3.org/2000/svg">
  <path fill="#1e1e1e;" d="m 50,4.6503906 v 0.6992188 h 4.8125 L 56.580078,8 54.8125,10.650391 h -1.625 -3.537109 V 17 h 0.699218 V 11.349609 H 52.8125 l 3.896484,5.84375 0.582032,-0.386718 -3.636719,-5.457032 H 55.1875 L 57.419922,8 55.1875,4.6503906 Z M 80.751953,4.7519531 74.505859,11 73.349609,12.15625 V 5 H 72.650391 V 12.855469 17 h 0.699218 V 13.144531 L 75,11.494141 80.751953,17.248047 81.248047,16.751953 75.496094,11 81.248047,5.2480469 Z m 11,0 L 85.505859,11 84.349609,12.15625 V 5 H 83.650391 V 12.855469 17 h 0.699218 V 13.144531 L 86,11.494141 91.751953,17.248047 92.248047,16.751953 86.496094,11 92.248047,5.2480469 Z M 65,5.6503906 c -3.226719,0 -5.849609,2.6228929 -5.849609,5.8496094 0,3.226717 2.62289,5.849609 5.849609,5.849609 3.226719,0 5.849609,-2.622892 5.849609,-5.849609 0,-3.2267165 -2.62289,-5.8496094 -5.849609,-5.8496094 z m 35,0 c -3.226719,0 -5.849609,2.6228929 -5.849609,5.8496094 0,3.226717 2.62289,5.849609 5.849609,5.849609 3.22672,0 5.84961,-2.622892 5.84961,-5.849609 0,-3.2267165 -2.62289,-5.8496094 -5.84961,-5.8496094 z M 65,6.3496094 c 2.848411,0 5.150391,2.3019811 5.150391,5.1503906 0,2.84841 -2.30198,5.150391 -5.150391,5.150391 -2.848411,0 -5.150391,-2.301981 -5.150391,-5.150391 0,-2.8484095 2.30198,-5.1503906 5.150391,-5.1503906 z m 35,0 c 2.84841,0 5.15039,2.3019811 5.15039,5.1503906 0,2.84841 -2.30198,5.150391 -5.15039,5.150391 -2.848411,0 -5.150391,-2.301981 -5.150391,-5.150391 0,-2.8484095 2.30198,-5.1503906 5.150391,-5.1503906 z M 50,20.650391 v 0.699218 h 4.8125 L 56.580078,24 54.8125,26.650391 H 49.650391 V 33 h 0.699218 V 27.349609 H 55.1875 L 57.419922,24 55.1875,20.650391 Z m 58,0 c -3.50286,0 -6.34961,2.84675 -6.34961,6.349609 0,3.502859 2.84675,6.349609 6.34961,6.349609 1.42083,0 2.83281,-0.536713 4.21094,-1.570312 l -0.42188,-0.558594 c -1.28853,0.966399 -2.54323,1.429688 -3.78906,1.429688 -3.12455,0 -5.65039,-2.525839 -5.65039,-5.650391 0,-3.124552 2.52584,-5.650391 5.65039,-5.650391 1.24583,0 2.50053,0.463289 3.78906,1.429688 l 0.42188,-0.558594 C 110.83281,21.187104 109.42083,20.650391 108,20.650391 Z m -36.730469,0.125 -0.539062,0.449218 4.919922,5.902344 V 33 h 0.699218 V 27.126953 L 81.269531,21.224609 80.730469,20.775391 76,26.451172 Z m 15.931641,0.128906 c -0.925817,0.132259 -1.792965,0.458467 -2.449219,0.976562 -0.656254,0.518096 -1.101562,1.252475 -1.101562,2.119141 0,1.116666 0.606994,1.888748 1.423828,2.365234 0.816834,0.476487 1.841798,0.72461 2.841797,0.97461 0.999999,0.249999 1.975038,0.501878 2.658203,0.90039 0.683164,0.398513 1.076172,0.876434 1.076172,1.759766 0,0.633333 -0.304693,1.148956 -0.835938,1.568359 -0.531244,0.419404 -1.289099,0.718198 -2.113281,0.835938 -1.648364,0.23548 -3.509719,-0.247 -4.410156,-1.597656 l -0.582032,0.386718 c 1.099561,1.649341 3.238211,2.166863 5.089844,1.902344 0.925817,-0.132259 1.792965,-0.458467 2.449219,-0.976562 0.656254,-0.518096 1.101562,-1.252475 1.101562,-2.119141 0,-1.116666 -0.606994,-1.888748 -1.423828,-2.365234 -0.816834,-0.476487 -1.841798,-0.72461 -2.841797,-0.97461 -0.999999,-0.25 -1.975038,-0.501878 -2.658203,-0.90039 C 84.742617,25.361253 84.349609,24.883332 84.349609,24 c 0,-0.633333 0.304693,-1.148956 0.835938,-1.568359 0.531244,-0.419404 1.289099,-0.718198 2.113281,-0.835938 1.648364,-0.23548 3.509719,0.247 4.410156,1.597656 l 0.582032,-0.386718 C 91.191455,21.1573 89.052805,20.639778 87.201172,20.904297 Z m 30.999998,0 c -0.92581,0.132259 -1.79296,0.458467 -2.44922,0.976562 -0.65625,0.518096 -1.10156,1.252475 -1.10156,2.119141 0,1.116666 0.60699,1.888748 1.42383,2.365234 0.81683,0.476487 1.8418,0.72461 2.8418,0.97461 0.99999,0.249999 1.97503,0.501878 2.6582,0.90039 0.68316,0.398513 1.07617,0.876434 1.07617,1.759766 0,0.633333 -0.30469,1.148956 -0.83594,1.568359 -0.53124,0.419404 -1.2891,0.718198 -2.11328,0.835938 -1.64836,0.23548 -3.50972,-0.247 -4.41015,-1.597656 l -0.58204,0.386718 c 1.09956,1.649341 3.23822,2.166863 5.08985,1.902344 0.92581,-0.132259 1.79296,-0.458467 2.44922,-0.976562 0.65625,-0.518096 1.10156,-1.252475 1.10156,-2.119141 0,-1.116666 -0.60699,-1.888748 -1.42383,-2.365234 -0.81683,-0.476487 -1.8418,-0.72461 -2.8418,-0.97461 -0.99999,-0.25 -1.97503,-0.501878 -2.6582,-0.90039 -0.68316,-0.398513 -1.07617,-0.876434 -1.07617,-1.759766 0,-0.633333 0.30469,-1.148956 0.83594,-1.568359 0.53124,-0.419404 1.2891,-0.718198 2.11328,-0.835938 1.64836,-0.23548 3.50972,0.247 4.41015,1.597656 l 0.58204,-0.386718 C 122.19146,21.1573 120.0528,20.639778 118.20117,20.904297 Z M 59.650391,21 V 26.650391 33 h 0.699218 v -5.650391 h 7.300782 V 33 h 0.699218 V 27.349609 21 h -0.699218 v 5.650391 H 60.349609 V 21 Z m 37,0 v 12 h 0.699218 V 21 Z m -42.15625,15.595703 -5.34375,3.207031 v 6.394532 l 5.34375,3.207031 3.177734,-1.798828 -0.34375,-0.609375 -2.822266,1.599609 -4.65625,-2.792969 v -5.605468 l 4.65625,-2.792969 2.822266,1.599609 0.34375,-0.609375 z M 81.5,36.650391 v 0.699218 h 4 c 0.912499,0 1.552427,0.329977 1.988281,0.820313 0.435854,0.490336 0.66211,1.157856 0.66211,1.830078 0,0.672222 -0.226256,1.339742 -0.66211,1.830078 -0.435854,0.490336 -1.075782,0.820313 -1.988281,0.820313 h -4 v 0.699218 h 4 c 0.912499,0 1.552427,0.329977 1.988281,0.820313 0.435854,0.490336 0.66211,1.157856 0.66211,1.830078 0,0.672222 -0.226256,1.339742 -0.66211,1.830078 -0.435854,0.490336 -1.075782,0.820313 -1.988281,0.820313 h -4 v 0.699218 h 4 c 1.087499,0 1.947574,-0.420024 2.511719,-1.054687 0.564144,-0.634663 0.83789,-1.467145 0.83789,-2.294922 0,-0.827777 -0.273746,-1.660259 -0.83789,-2.294922 C 87.751973,43.412864 87.413654,43.18123 87.035156,43 c 0.378498,-0.18123 0.716817,-0.412864 0.976563,-0.705078 0.564144,-0.634663 0.83789,-1.467145 0.83789,-2.294922 0,-0.827777 -0.273746,-1.660259 -0.83789,-2.294922 C 87.447574,37.070415 86.587499,36.650391 85.5,36.650391 Z M 60.150391,37 V 49.349609 H 67.5 V 48.650391 H 60.849609 V 37 Z m 10,0 v 8 c 0,1.420831 0.545024,2.530908 1.367187,3.261719 0.822163,0.730811 1.904645,1.08789 2.982422,1.08789 1.077777,0 2.160259,-0.357079 2.982422,-1.08789 C 78.304585,47.530908 78.849609,46.420831 78.849609,45 v -8 h -0.699218 v 8 c 0,1.245831 -0.454977,2.135761 -1.132813,2.738281 -0.677836,0.602521 -1.595357,0.91211 -2.517578,0.91211 -0.922221,0 -1.839742,-0.309589 -2.517578,-0.91211 C 71.304586,47.135761 70.849609,46.245831 70.849609,45 v -8 z"/>
  <path fill="#4e6e8e" d="M24 5.6 5 17V38L8 36.45V19L24 9ZM5 39 25 51 45 39V18ZM25 5V27.5L45 17M25 48 10.3 39.2 25 31.5"/>
</svg>
